<?xml version="1.0" encoding="UTF-8"?>
<svg xmlns="http://www.w3.org/2000/svg" viewBox="0 0 404.64 75.66">
  <defs>
    <style>
      .cls-1 {
        fill: #0082dc;
      }

      .cls-2 {
        fill: #e27f2d;
      }
    </style>
  </defs>
  <g id="Capa_2" data-name="Capa 2">
    <g>
      <path d="m147.37,20.48h-7.98l1.74-8.03h25.18l-1.68,8.03h-7.6l-6.95,32.78h-9.66l6.95-32.78Z"/>
      <path d="m164.95,54.02c-4.29,0-6.84-2.77-6.84-7.71,0-5.48,2.33-8.9,7.06-10.37,6.4-2.01,10.48-1.95,10.48-5.81,0-1.68-.92-2.55-2.77-2.55-2.28,0-3.31,1.3-3.85,4.18h-7.82c1.03-6.78,4.88-9.93,12.21-9.93,6.89,0,10.48,2.88,10.48,8.3,0,1.57-.38,3.53-.87,5.92l-2.33,10.86c-.27,1.19-.38,2.39-.38,3.69,0,.76.05,1.63.16,2.66h-8.36v-2.55c-1.9,2.17-4.4,3.31-7.16,3.31Zm3.31-12.92c-1.09.65-1.74,2.06-1.74,3.91s.92,2.88,2.6,2.88c2.33,0,3.26-1.79,4.07-5.64l.87-3.91c-1.9,1.46-4.18,1.74-5.81,2.77Z"/>
      <path d="m191.98,22.6h7.54l-.6,2.93c2.01-2.55,4.4-3.75,7.44-3.75,4.29,0,6.3,2.28,6.3,7.06,0,2.93-.76,8.58-2.93,16.01-1.9,6.4-4.18,9.23-8.68,9.23-3.36,0-5.37-1.68-6.19-5.16l-3.09,14.65h-8.47l8.68-40.98Zm4.83,17.26c-.38,1.85-.54,3.26-.54,4.18,0,1.85.81,2.82,2.28,2.82,2.06,0,2.77-2.23,3.8-6.73l1.14-5.16c.49-2.12.65-3.64.65-4.5,0-1.79-.81-2.71-2.33-2.71-2.12,0-2.93,2.17-3.8,6.4l-1.19,5.7Z"/>
      <path d="m220.26,22.6h8.47l-6.51,30.67h-8.47l6.51-30.67Zm2.28-10.8h8.47l-1.46,7.06h-8.52l1.52-7.06Z"/>
      <path d="m236,54.02c-4.29,0-6.84-2.77-6.84-7.71,0-5.48,2.33-8.9,7.06-10.37,6.4-2.01,10.47-1.95,10.47-5.81,0-1.68-.92-2.55-2.77-2.55-2.28,0-3.31,1.3-3.85,4.18h-7.82c1.03-6.78,4.88-9.93,12.21-9.93,6.89,0,10.47,2.88,10.47,8.3,0,1.57-.38,3.53-.87,5.92l-2.33,10.86c-.27,1.19-.38,2.39-.38,3.69,0,.76.05,1.63.16,2.66h-8.36v-2.55c-1.9,2.17-4.4,3.31-7.17,3.31Zm3.31-12.92c-1.09.65-1.74,2.06-1.74,3.91s.92,2.88,2.61,2.88c2.33,0,3.26-1.79,4.07-5.64l.87-3.91c-1.9,1.46-4.18,1.74-5.81,2.77Z"/>
      <path class="cls-1" d="m280.73,38.99c-.05.76-.11,1.47-.11,2.06,0,3.96,1.19,5.86,3.91,5.86,2.06,0,3.47-1.52,3.47-4.12,0-3.69-2.66-5.21-6.13-8.41-3.85-3.58-5.81-7-5.81-11.29,0-7.44,4.45-11.67,12.65-11.67,7.44,0,11.34,3.8,11.34,11.13,0,.76,0,1.57-.11,2.44h-8.2v-.71c0-4.12-.92-5.92-3.53-5.92-2.01,0-3.15,1.36-3.15,3.53,0,2.77,1.74,4.45,4.61,6.95,4.18,3.69,7.38,6.35,7.38,12.75,0,8.25-4.45,12.59-13.03,12.59-8.09,0-12.16-4.29-12.16-12.86,0-.76.05-1.52.11-2.33h8.74Z"/>
      <path class="cls-1" d="m309.93,45.83c0,1.3.71,1.57,2.61,1.57h1.08l-1.3,6.13c-1.46.16-2.77.27-3.96.27-4.83,0-7.27-1.85-7.27-5.54,0-1.41.43-3.37.98-5.97l2.99-14.11h-3.42l1.19-5.59h3.42l1.95-9.12h8.47l-1.95,9.12h4.18l-1.19,5.59h-4.18l-3.31,15.85c-.16.81-.27,1.41-.27,1.79Z"/>
      <path class="cls-1" d="m319.1,36.65c.98-4.67,2.01-7.54,2.61-8.68,2.23-4.45,5.26-6.19,10.91-6.19,6.68,0,10.26,3.2,10.26,8.74,0,1.85-.38,4.67-1.19,8.47-.98,4.45-1.85,7.44-2.61,8.96-2.17,4.45-5.32,6.13-10.96,6.13-6.62,0-10.26-3.15-10.26-8.68,0-1.84.38-4.78,1.25-8.74Zm7.92,3.31c-.6,2.77-.81,4.5-.81,5.26,0,1.85.76,2.77,2.33,2.77,2.5,0,3.04-2.06,4.02-6.68l1.14-5.48c.6-2.77.87-4.5.87-5.26,0-1.85-.76-2.77-2.33-2.77-2.5,0-3.04,2.06-4.02,6.68l-1.19,5.48Z"/>
      <path class="cls-1" d="m350.42,22.6h7.49l-1.25,5.86c2.01-4.61,4.45-6.73,8.2-6.73h.54l-2.01,9.5h-1.85c-4.23,0-4.99,2.5-6.08,7.65l-3.09,14.38h-8.47l6.51-30.67Z"/>
      <path class="cls-1" d="m375.33,54.08c-6.68,0-10.26-3.15-10.26-8.74,0-1.85.43-4.67,1.25-8.47.98-4.45,1.85-7.38,2.61-8.9,2.23-4.45,5.32-6.19,10.96-6.19,6.68,0,10.2,3.2,10.2,9.12,0,1.68-.43,4.45-1.3,8.25h-14.49l-.6,2.61c-.33,1.41-.49,2.66-.49,3.58,0,1.9.87,2.82,2.6,2.82,2.23,0,3.31-1.63,3.91-5.32h8.14c-1.41,7.87-5.21,11.24-12.54,11.24Zm6.57-20.08c.33-1.63.49-2.82.49-3.58,0-2.06-.92-3.15-2.66-3.15-2.55,0-3.37,2.01-4.29,6.73h6.46Z"/>
    </g>
    <rect class="cls-2" x="127.64" y="66.83" width="277" height="3"/>
  </g>
  <g id="Capa_1" data-name="Capa 1">
    <g>
      <path d="m114.94,10.6H33.24c-.81,0-1.31.88-.89,1.57l12.94,21.87c.19.32.53.51.89.51h55.3c.69,0,1.19.67,1,1.33l-2.36,8.01c-.13.44-.54.75-1,.75h-53.61c-.37,0-.71-.2-.9-.51L21.85,5.23c-.41-.69.09-1.57.9-1.57h15.29c.57,0,1.04-.47,1.04-1.04v-1.59c0-.57-.47-1.04-1.04-1.04H1.04C.47,0,0,.47,0,1.04v1.59c0,.57.47,1.04,1.04,1.04h12.5c.37,0,.71.19.9.51l35.52,60.12c.19.32.53.51.9.51h46.62c1.12,0,2.12-.72,2.48-1.78h0c.23-.67-.27-1.37-.99-1.37h-43.73c-.38,0-.72-.2-.91-.53l-4.51-8.01c-.39-.69.11-1.55.91-1.55h52c.45,0,.86-.29.99-.73l6.91-21.87c.21-.67-.29-1.35-.99-1.35h-60.89c-.37,0-.72-.2-.9-.52l-4.94-8.64c-.4-.69.1-1.56.9-1.56h69.8c.45,0,.85-.29.99-.72l1.35-4.22c.21-.67-.29-1.36-.99-1.36Z"/>
      <circle cx="60.65" cy="71.11" r="4.55"/>
      <circle cx="91.35" cy="71.11" r="4.55"/>
    </g>
  </g>
</svg>